<svg width="13" height="13" viewBox="0 0 13 13" fill="none" xmlns="http://www.w3.org/2000/svg">
<g clip-path="url(#clip0)">
<path d="M6.43691 0C2.87927 0 0 2.87893 0 6.43691C0 9.99458 2.87893 12.8738 6.43691 12.8738C9.99461 12.8738 12.8738 9.99488 12.8738 6.43691C12.8738 2.87921 9.99488 0 6.43691 0ZM6.75405 6.70364L4.99949 8.78968C4.85216 8.96483 4.59071 8.98737 4.41562 8.84007C4.24047 8.69274 4.2179 8.43135 4.36523 8.2562L6.02252 6.2858V1.60307C6.02252 1.37422 6.20806 1.18868 6.43691 1.18868C6.66576 1.18868 6.85129 1.37422 6.85129 1.60307V6.43691C6.85129 6.53448 6.81685 6.62896 6.75405 6.70364Z" fill="#B793FF"/>
</g>
<defs>
<clipPath id="clip0">
<rect width="12.8738" height="12.8738" fill="white"/>
</clipPath>
</defs>
</svg>
