<svg width="38" height="38" viewBox="0 0 38 38" fill="none" xmlns="http://www.w3.org/2000/svg">
<rect width="38" height="37.1739" rx="10" fill="#FFD9CD"/>
<path d="M19 7C12.373 7 7 12.373 7 19C7 25.627 12.373 31 19 31C25.627 31 31 25.627 31 19C31 12.373 25.627 7 19 7ZM22.664 22.889C19.891 22.889 18.928 21.639 18.416 20.083L17.901 18.479C17.516 17.309 17.067 16.395 15.657 16.395C14.678 16.395 13.683 17.101 13.683 19.073C13.683 20.612 14.469 21.575 15.577 21.575C16.826 21.575 17.66 20.644 17.66 20.644L18.175 22.04C18.175 22.04 17.309 22.89 15.496 22.89C13.251 22.889 12 21.574 12 19.136C12 16.602 13.251 15.111 15.607 15.111C17.74 15.111 18.815 15.881 19.488 17.965L20.018 19.569C20.403 20.74 21.076 21.59 22.696 21.59C23.787 21.59 24.364 21.35 24.364 20.756C24.364 20.291 24.091 19.954 23.274 19.762L22.183 19.506C20.852 19.185 20.322 18.496 20.322 17.405C20.322 15.657 21.734 15.112 23.176 15.112C24.814 15.112 25.806 15.705 25.935 17.149L24.331 17.341C24.268 16.651 23.851 16.362 23.08 16.362C22.374 16.362 21.942 16.683 21.942 17.228C21.942 17.709 22.15 17.998 22.856 18.158L23.881 18.383C25.262 18.704 26 19.377 26 20.676C26 22.279 24.653 22.889 22.664 22.889V22.889Z" fill="#5E19A2"/>
</svg>
