<svg width="227" height="193" viewBox="0 0 227 193" fill="none" xmlns="http://www.w3.org/2000/svg">
<path d="M11.592 170.726C8.952 170.726 6.888 170.294 5.4 169.43C3.936 168.566 2.892 167.222 2.268 165.398C1.644 163.55 1.332 161.078 1.332 157.982C1.332 154.958 1.668 152.546 2.34 150.746C3.012 148.946 4.068 147.638 5.508 146.822C6.972 146.006 8.916 145.598 11.34 145.598C13.572 145.598 16.044 145.85 18.756 146.354L20.088 146.642L19.944 151.538C17.448 151.346 15.24 151.25 13.32 151.25C11.64 151.25 10.404 151.598 9.612 152.294C8.844 152.966 8.364 153.842 8.172 154.922C8.004 155.978 7.92 157.454 7.92 159.35C7.92 160.91 8.028 162.098 8.244 162.914C8.484 163.73 8.904 164.318 9.504 164.678C10.128 165.014 11.028 165.182 12.204 165.182H13.752V162.446H12.816V156.902H20.088V169.934C16.248 170.462 13.416 170.726 11.592 170.726ZM24.3143 146.066H33.9983C37.0223 146.066 39.2903 146.774 40.8023 148.19C42.3383 149.606 43.1063 151.694 43.1063 154.454C43.1063 157.214 42.1223 159.53 40.1543 161.402L42.7823 170.258H35.7623L33.9983 162.95H30.7223V170.258H24.3143V146.066ZM34.1063 157.478C34.8743 157.478 35.4623 157.19 35.8703 156.614C36.3023 156.014 36.5183 155.294 36.5183 154.454C36.5183 153.638 36.2783 152.942 35.7983 152.366C35.3423 151.79 34.7423 151.502 33.9983 151.502H30.7223V157.478H34.1063ZM58.4868 167.162H51.4308L50.9628 170.258H44.4828L49.1268 146.066H60.7908L65.4348 170.258H58.9548L58.4868 167.162ZM55.7508 151.322H54.1668L52.5108 161.618H57.4068L55.7508 151.322ZM94.7908 146.066V170.258H88.3828V153.338H87.9868L84.6388 169.07H78.4468L75.0628 153.338H74.7028V170.258H68.2948V146.066H79.0588L81.5428 160.466L84.0268 146.066H94.7908ZM126.115 146.066V170.258H119.707V153.338H119.311L115.963 169.07H109.771L106.387 153.338H106.027V170.258H99.619V146.066H110.383L112.867 160.466L115.351 146.066H126.115ZM130.943 146.066H137.351V170.258H130.943V146.066ZM149.572 170.762C147.508 170.762 145.156 170.414 142.516 169.718L141.22 169.43L141.868 164.534C145.036 164.966 147.484 165.182 149.212 165.182C151.084 165.182 152.02 164.534 152.02 163.238C152.02 162.782 151.804 162.422 151.372 162.158C150.964 161.894 150.352 161.606 149.536 161.294C149.008 161.102 148.624 160.946 148.384 160.826C145.672 159.914 143.74 158.87 142.588 157.694C141.46 156.518 140.896 155.042 140.896 153.266C140.896 150.746 141.664 148.838 143.2 147.542C144.736 146.246 146.824 145.598 149.464 145.598C150.544 145.598 151.564 145.67 152.524 145.814C153.508 145.958 155.296 146.27 157.888 146.75L157.384 151.718C154.264 151.358 151.864 151.178 150.184 151.178C148.216 151.178 147.232 151.718 147.232 152.798C147.232 153.158 147.472 153.47 147.952 153.734C148.432 153.974 149.188 154.286 150.22 154.67C151.276 155.054 151.96 155.318 152.272 155.462C153.856 156.11 155.08 156.746 155.944 157.37C156.808 157.97 157.432 158.702 157.816 159.566C158.2 160.43 158.392 161.522 158.392 162.842C158.392 164.522 157.996 165.962 157.204 167.162C156.436 168.338 155.38 169.238 154.036 169.862C152.716 170.462 151.228 170.762 149.572 170.762ZM165.698 151.718H159.902V146.066H177.902V151.718H172.178V170.258H165.698V151.718ZM187.203 151.646V155.426H194.907V160.898H187.203V164.678H197.067V170.258H180.795V146.066H197.067V151.646H187.203ZM200.764 146.066H210.448C213.472 146.066 215.74 146.774 217.252 148.19C218.788 149.606 219.556 151.694 219.556 154.454C219.556 157.214 218.572 159.53 216.604 161.402L219.232 170.258H212.212L210.448 162.95H207.172V170.258H200.764V146.066ZM210.556 157.478C211.324 157.478 211.912 157.19 212.32 156.614C212.752 156.014 212.968 155.294 212.968 154.454C212.968 153.638 212.728 152.942 212.248 152.366C211.792 151.79 211.192 151.502 210.448 151.502H207.172V157.478H210.556Z" fill="#FFD9CD"/>
<g clip-path="url(#clip0)">
<path d="M151.595 75.7705L140.814 64.688L137.166 68.5051L147.95 79.5931C148.017 79.6909 148.105 79.91 148.125 80.0285V90.5937H143.603C143.665 90.7235 143.703 90.8683 143.703 91.0235V95.5618C143.703 95.7169 143.665 95.8608 143.603 95.9915H149.415C151.55 95.9915 153.285 94.1757 153.285 91.9432V79.9909C153.286 78.5296 152.59 76.7945 151.595 75.7705Z" fill="#AB4426"/>
<path d="M119.387 83.9048C119.397 83.8258 119.404 83.7458 119.404 83.664V78.2662C119.404 77.9286 119.678 77.6428 120.002 77.6428H134.441C134.766 77.6428 135.04 77.9286 135.04 78.2662V90.0492H138.5V78.2662C138.5 75.9313 136.68 74.0317 134.441 74.0317H120.002C117.764 74.0317 115.943 75.9313 115.943 78.2662V83.664C115.943 83.7458 115.95 83.8258 115.96 83.9048H119.387Z" fill="#F46036"/>
<path d="M78.582 114.865H95.4002V119.888H78.582V114.865Z" fill="#F46036"/>
<path d="M78.582 114.865H83.3773V119.888H78.582V114.865Z" fill="#AB4426"/>
<path d="M119.607 114.865H136.426V119.888H119.607V114.865Z" fill="#F46036"/>
<path d="M119.607 114.865H124.403V119.888H119.607V114.865Z" fill="#AB4426"/>
<path d="M143.087 112.883C143.087 114.547 144.386 115.902 145.982 115.902H147.593C147.51 115.634 147.464 115.348 147.464 115.051V113.067C147.464 112.798 147.503 112.539 147.573 112.291H146.548V103.767C146.548 102.101 145.249 100.747 143.653 100.747H138.996V104.358H143.087V112.883Z" fill="#FFD9CD"/>
<path d="M155.761 118.071H150.128C148.532 118.071 147.234 116.717 147.234 115.051V113.067C147.234 111.402 148.532 110.046 150.128 110.046H155.761C157.357 110.046 158.655 111.402 158.655 113.067V115.051C158.655 116.717 157.357 118.071 155.761 118.071Z" fill="#AB4426"/>
<path d="M131.658 90.0493C131.714 89.8424 131.746 89.6251 131.746 89.4004V86.094C131.746 84.7577 130.698 83.665 129.418 83.665H85.5906C84.3091 83.665 83.2619 84.7577 83.2619 86.094V89.4004C83.2619 89.6251 83.2934 89.8424 83.3493 90.0493H131.658Z" fill="#1D1E18"/>
<path d="M93.0111 90.0493C92.9561 89.8424 92.9237 89.6251 92.9237 89.4004V86.094C92.9237 84.7577 93.9718 83.665 95.2524 83.665H85.5906C84.3091 83.665 83.2619 84.7577 83.2619 86.094V89.4004C83.2619 89.6251 83.2934 89.8424 83.3493 90.0493H93.0111Z" fill="#6A706E"/>
<path d="M75.7802 96.5351V113.891C75.7802 114.558 76.3047 115.106 76.9445 115.106H138.063C138.703 115.106 139.226 114.558 139.226 113.891V96.5351H75.7802Z" fill="#AB4426"/>
<path d="M81.5145 113.891V96.5351H75.7802V113.891C75.7802 114.558 76.3037 115.106 76.9445 115.106H82.6788C82.0381 115.106 81.5145 114.558 81.5145 113.891Z" fill="#AB4426"/>
<path d="M89.6316 96.5351H125.376V115.106H89.6316V96.5351Z" fill="#FFD9CD"/>
<path d="M143.934 95.5608C143.934 96.2285 143.41 96.7758 142.769 96.7758H72.2384C71.5986 96.7758 71.0741 96.2285 71.0741 95.5608V91.0235C71.0741 90.3549 71.5986 89.8085 72.2384 89.8085H142.769C143.409 89.8085 143.934 90.3549 143.934 91.0235V95.5608Z" fill="#F46036"/>
<path d="M81.072 95.5608V91.0235C81.072 90.3549 81.5965 89.8085 82.2364 89.8085H72.2384C71.5986 89.8085 71.0741 90.3549 71.0741 91.0235V95.5608C71.0741 96.2285 71.5986 96.7758 72.2384 96.7758H82.2364C81.5965 96.7758 81.072 96.2294 81.072 95.5608Z" fill="#F46036"/>
<path d="M129.126 49.8817C127.341 43.0809 126.488 34.6748 126.867 26.4107C126.993 22.0435 127.565 15.0349 129.586 6.44447C129.722 5.86707 129.84 5.35926 129.487 4.96995C128.427 3.37694 126.731 2.30584 124.696 1.94755C121.767 1.43128 118.52 2.38389 115.788 4.55806C115.295 4.94926 114.826 5.37713 114.394 5.82852C112.506 7.80238 111.317 10.2192 111.033 12.6068C108.197 12.446 105.065 13.707 102.617 16.0477C102.463 16.1953 102.31 16.3476 102.163 16.5019C99.9612 18.8039 98.6725 21.7201 98.5832 24.5017C95.9229 24.5948 93.1346 25.9433 90.9338 28.2454C90.7869 28.3987 90.6409 28.5595 90.5013 28.7193C88.2609 31.28 87.0551 34.5563 87.2101 37.5223C84.9273 37.8204 82.6167 39.0617 80.7277 41.0374C80.2961 41.4888 79.8869 41.9797 79.5129 42.495C77.4338 45.3509 76.5245 48.7467 77.0175 51.8114C77.3599 53.9385 78.3828 55.7121 79.9058 56.8208C80.278 57.1923 80.7638 57.0672 81.3135 56.9261C89.528 54.8112 96.2311 54.2122 100.427 54.0815C108.316 53.6846 116.35 54.5771 122.853 56.4437L129.126 49.8817Z" fill="#FFD9CD"/>
<path d="M128.202 50.8484L111.033 12.6068C108.197 12.446 105.065 13.707 102.617 16.0476C102.463 16.1953 102.31 16.3476 102.163 16.5018C99.9612 18.8039 98.6725 21.72 98.5833 24.5017L125.99 53.1627L128.202 50.8484Z" fill="#F46036"/>
<path d="M123.776 55.477L87.2101 37.5222C84.9273 37.8194 82.6166 39.0617 80.7286 41.0374C80.297 41.4888 79.8878 41.9797 79.5129 42.495C77.4347 45.3509 76.5245 48.7467 77.0175 51.8114C77.3599 53.9385 78.3837 55.7121 79.9058 56.8208C80.278 57.1922 80.7638 57.0662 81.3135 56.9252C89.5279 54.8112 96.232 54.2112 100.427 54.0805C108.316 53.6846 116.35 54.577 122.853 56.4428L123.776 55.477Z" fill="#F46036"/>
<path d="M104.258 49.7501C100.063 49.8808 93.359 50.4807 85.1454 52.5947C84.5948 52.7358 84.109 52.8618 83.7377 52.4903C82.2138 51.3816 81.191 49.6081 80.8485 47.4809C80.4312 44.8826 81.0242 42.0483 82.4806 39.5046C81.8678 39.9503 81.2793 40.4609 80.7277 41.0374C80.2961 41.4878 79.8869 41.9787 79.5129 42.4941C77.4338 45.35 76.5245 48.7457 77.0175 51.8104C77.3599 53.9385 78.3828 55.7111 79.9058 56.8208C80.278 57.1913 80.7638 57.0662 81.3135 56.9252C89.528 54.8103 96.2311 54.2112 100.427 54.0805C108.316 53.6837 116.35 54.5761 122.853 56.4428L123.776 55.477L112.168 49.7773C109.557 49.6325 106.9 49.6184 104.258 49.7501Z" fill="#F46036"/>
<path d="M141.175 62.9446C141.572 63.4684 141.527 64.2837 141.076 64.7558L136.965 69.0561C136.513 69.5291 135.736 69.5715 135.239 69.1511L122.393 58.2934C121.896 57.8731 121.859 57.1424 122.31 56.6694L129.342 49.3147C129.795 48.8416 130.489 48.883 130.887 49.4068L141.175 62.9446Z" fill="#F46036"/>
<path d="M128.251 58.2944C127.753 57.874 127.716 57.1424 128.169 56.6694L132.759 51.8697L130.888 49.4068C130.489 48.8839 129.795 48.8426 129.342 49.3156L122.311 56.6694C121.859 57.1424 121.896 57.874 122.393 58.2944L135.239 69.152C135.736 69.5724 136.513 69.5291 136.965 69.0561L138.761 67.1782L128.251 58.2944Z" fill="#FFB29C"/>
<path d="M111.612 105.709C111.612 103.337 109.773 101.414 107.503 101.414C105.235 101.414 103.396 103.337 103.396 105.709C103.396 108.082 105.235 110.006 107.503 110.006C109.773 110.006 111.612 108.082 111.612 105.709Z" fill="#FFB29C"/>
<path d="M106.828 105.709C106.828 103.978 107.81 102.49 109.22 101.81C108.697 101.558 108.117 101.413 107.503 101.413C105.235 101.413 103.396 103.337 103.396 105.709C103.396 108.082 105.235 110.006 107.503 110.006C108.117 110.006 108.697 109.861 109.22 109.609C107.81 108.928 106.828 107.441 106.828 105.709Z" fill="#FFB29C"/>
<path d="M107.503 111.811C104.284 111.811 101.665 109.074 101.665 105.709C101.665 102.344 104.284 99.6064 107.503 99.6064C110.722 99.6064 113.342 102.344 113.342 105.709C113.342 109.074 110.723 111.811 107.503 111.811ZM107.503 103.218C106.192 103.218 105.126 104.336 105.126 105.709C105.126 107.083 106.192 108.201 107.503 108.201C108.815 108.201 109.882 107.083 109.882 105.709C109.882 104.336 108.815 103.218 107.503 103.218Z" fill="#AB4426"/>
<path d="M156.925 123.258H71.0741C70.1188 123.258 69.3438 122.45 69.3438 121.452C69.3438 120.455 70.1188 119.647 71.0741 119.647H156.925C157.88 119.647 158.656 120.455 158.656 121.452C158.656 122.45 157.88 123.258 156.925 123.258Z" fill="#AB4426"/>
<path d="M70.9669 29.3682C70.3256 28.8407 69.4726 28.6328 68.6291 28.8002L55.4365 31.4013C53.9262 31.6976 52.7874 33.0827 52.7874 34.6221V49.1153C53.5933 49.2714 54.3362 49.6598 54.9305 50.2494C55.7224 51.0318 56.1577 52.0757 56.1577 53.1872H56.3985V34.892L68.3649 32.5336V46.045C69.1708 46.2002 69.9127 46.5895 70.5071 47.1782C71.2989 47.9615 71.7352 49.0053 71.7352 50.1159H71.9759V31.5518C71.9759 30.6913 71.6082 29.8948 70.9669 29.3682Z" fill="#F46036"/>
<path d="M64.8328 58.0687C64.2187 58.0687 63.6394 57.8318 63.2022 57.4011L58.9892 53.2267C58.1514 52.3973 57.6896 51.2923 57.6896 50.1159C57.6896 48.9395 58.1523 47.8345 58.9911 47.0061C59.8224 46.1823 60.9283 45.7271 62.1057 45.7271C63.1062 45.7271 64.0579 46.0572 64.8337 46.6656C65.6095 46.0572 66.5612 45.7271 67.5618 45.7271C68.7373 45.7271 69.8441 46.1813 70.6773 47.007C71.5152 47.8364 71.9759 48.9404 71.9759 50.1159C71.9759 51.2914 71.5161 52.3954 70.6792 53.2258L66.4681 57.3973C66.0271 57.8318 65.4478 58.0687 64.8328 58.0687Z" fill="#FFD9CD"/>
<path d="M49.2563 61.14C48.6394 61.14 48.0591 60.9012 47.6219 60.4676L43.4127 56.298C42.5748 55.4686 42.1131 54.3636 42.1131 53.1872C42.1131 52.0098 42.5748 50.9058 43.4136 50.0764C44.244 49.2526 45.3508 48.7975 46.5282 48.7975C47.5297 48.7975 48.4804 49.1276 49.2563 49.736C50.0302 49.1276 50.9819 48.7975 51.9852 48.7975C53.1607 48.7975 54.2666 49.2526 55.1007 50.0783C55.9377 50.9058 56.3994 52.0098 56.3994 53.1872C56.3994 54.3636 55.9377 55.4686 55.1007 56.298L50.8897 60.4676C50.4552 60.9002 49.8741 61.14 49.2563 61.14Z" fill="#FFD9CD"/>
<path d="M90.3576 1.04956L83.5586 2.47142C82.4546 2.71216 81.7531 3.73342 81.7531 4.73116V18.0987C82.5599 18.2539 83.3019 18.6423 83.8962 19.2319C84.688 20.0143 85.1234 21.0581 85.1234 22.1696H85.3641V7.54103L90.366 6.38718C91.0168 6.23672 91.55 5.56716 91.55 4.89949V2.02944C91.55 1.36083 91.0139 0.920729 90.3576 1.04956Z" fill="#F46036"/>
<path d="M78.2219 30.1224C77.6079 30.1224 77.0286 29.8845 76.5913 29.4538L72.3784 25.2794C71.5405 24.451 71.0788 23.346 71.0788 22.1696C71.0788 20.9932 71.5405 19.8882 72.3793 19.0588C73.2106 18.235 74.3175 17.7808 75.493 17.7808C76.4945 17.7808 77.4461 18.1109 78.2219 18.7184C78.9978 18.1109 79.9494 17.7808 80.95 17.7808C82.1264 17.7808 83.2323 18.235 84.0655 19.0607C84.9024 19.8882 85.3642 20.9932 85.3642 22.1696C85.3642 23.3451 84.9024 24.45 84.0646 25.2794L79.8554 29.45C79.4162 29.8845 78.837 30.1224 78.2219 30.1224Z" fill="#FFD9CD"/>
</g>
<defs>
<clipPath id="clip0">
<rect width="118.122" height="123.258" fill="white" transform="translate(42.1131)"/>
</clipPath>
</defs>
</svg>
