<svg width="8" height="8" viewBox="0 0 8 8" fill="none" xmlns="http://www.w3.org/2000/svg">
<path d="M5.9103 1.24168C5.84391 1.20098 5.75773 1.22161 5.71717 1.28757C5.67647 1.35368 5.6971 1.43999 5.76307 1.4807C6.76826 2.09964 7.3684 3.17249 7.3684 4.35087C7.3684 4.64098 7.33037 4.9315 7.25542 5.21431C7.23563 5.28912 7.28026 5.36603 7.35521 5.38596C7.36714 5.38905 7.37935 5.39059 7.39114 5.39059C7.45331 5.39059 7.51016 5.34905 7.52672 5.28617C7.60798 4.97992 7.6491 4.66526 7.6491 4.35087C7.6491 3.07438 6.99914 1.91199 5.9103 1.24168Z" fill="white"/>
<path d="M5.28708 7.46414C4.87796 7.6334 4.44497 7.7193 3.99992 7.7193C3.05564 7.7193 2.14883 7.31874 1.51178 6.62007C1.45957 6.56281 1.37101 6.55874 1.31346 6.61095C1.2562 6.66316 1.25213 6.752 1.30434 6.80927C1.99445 7.5659 2.9769 8 3.99992 8C4.48203 8 4.95122 7.90695 5.39445 7.72337C5.46603 7.69376 5.50013 7.61165 5.47052 7.53993C5.4409 7.46849 5.35866 7.43453 5.28708 7.46414Z" fill="white"/>
<path d="M3.19771 1.07888C3.27307 1.06035 3.31911 0.984423 3.30072 0.909195C3.28248 0.833967 3.20613 0.788212 3.13118 0.806177C1.5862 1.18372 0.473074 2.50358 0.361074 4.09067C0.3556 4.168 0.413846 4.23509 0.491179 4.24042C0.494548 4.2407 0.497916 4.24084 0.501144 4.24084C0.574267 4.24084 0.635741 4.18442 0.641074 4.11032C0.744513 2.64562 1.77188 1.42723 3.19771 1.07888Z" fill="white"/>
<path d="M4.00006 1.68421C4.46515 1.68421 4.84217 1.30719 4.84217 0.842105C4.84217 0.377023 4.46515 0 4.00006 0C3.53498 0 3.15796 0.377023 3.15796 0.842105C3.15796 1.30719 3.53498 1.68421 4.00006 1.68421Z" fill="white"/>
<path d="M0.912296 6.8772C1.37738 6.8772 1.7544 6.50018 1.7544 6.0351C1.7544 5.57002 1.37738 5.19299 0.912296 5.19299C0.447214 5.19299 0.0701904 5.57002 0.0701904 6.0351C0.0701904 6.50018 0.447214 6.8772 0.912296 6.8772Z" fill="white"/>
<path d="M7.08771 6.8772C7.55279 6.8772 7.92982 6.50018 7.92982 6.0351C7.92982 5.57002 7.55279 5.19299 7.08771 5.19299C6.62263 5.19299 6.24561 5.57002 6.24561 6.0351C6.24561 6.50018 6.62263 6.8772 7.08771 6.8772Z" fill="white"/>
</svg>
